<svg width="614" height="335" viewBox="0 0 614 335" fill="none" xmlns="http://www.w3.org/2000/svg">
<path opacity="0.1" d="M15.3423 120.483C22.4864 112.595 30.1131 105.082 38.1739 97.9474M38.1739 97.9474C57.3659 80.9611 79.0193 66.1227 102.483 53.4993M38.1739 97.9474C51.1238 83.6372 68.0591 70.1491 86.2412 55.8972M38.1739 97.9474C23.8319 113.796 14.3783 130.653 13.5334 150.672M102.483 53.4993C141.547 32.4826 185.629 17.6055 231.723 9.17719M102.483 53.4993C133.835 49.8127 169.149 50.5167 204.059 50.3032C266.965 49.9185 313.183 82.817 359.065 100.632M102.483 53.4993C96.9369 54.1514 91.515 54.9409 86.2412 55.8972M231.723 9.17719C333.068 -9.35395 444.14 3.28991 532.994 50.3952M231.723 9.17719C305.086 8.88044 388.379 28.3989 458.361 50.213M231.723 9.17719C179.477 9.38852 132.267 19.6494 98.489 46.2877C94.365 49.5399 90.2725 52.7373 86.2412 55.8972M532.994 50.3952C541.403 54.853 549.612 59.6195 557.596 64.6974C569.65 72.3644 583.588 83.4084 594.468 92.4961M532.994 50.3952C549.755 41.8525 564.755 40.3614 578.055 55.2454C589 67.4937 594.47 79.8881 594.468 92.4961M532.994 50.3952C527.475 53.2082 521.764 56.786 515.86 60.7955M594.468 92.4961C605.229 101.485 613 108.559 613 108.559C613 108.559 606.094 105.359 593.807 100.106M594.468 92.4961C594.467 95.0241 594.247 97.5607 593.807 100.106M593.807 100.106C584.165 95.9852 571.211 90.6007 555.679 84.5079M593.807 100.106C592.39 108.301 588.694 116.59 582.72 124.992M555.679 84.5079C541.583 78.9782 525.364 72.8651 507.572 66.5834M555.679 84.5079C544.72 74.5357 531.321 66.5538 515.86 60.7955M555.679 84.5079C567.906 95.6334 577.095 109.236 582.72 124.992M507.572 66.5834C492.221 61.1633 475.7 55.6177 458.361 50.213M507.572 66.5834C510.376 64.5841 513.139 62.6439 515.86 60.7955M507.572 66.5834C481.307 85.3116 451.421 109.229 417.736 111.525C397.437 112.908 378.28 108.093 359.065 100.632M458.361 50.213C411.939 49.4424 393.988 81.5844 359.065 100.632M458.361 50.213C459.32 50.2289 460.29 50.2588 461.274 50.3032C481.419 51.2126 499.758 54.7979 515.86 60.7955M86.2412 55.8972C52.4412 62.0258 24.7245 75.0044 9.44998 102.567C-1.93137 123.105 -1.19773 143.403 7.9583 162.163M13.5334 150.672C13.2714 156.881 13.8373 163.394 15.3423 170.275C15.8548 172.619 16.4696 174.875 17.1829 177.047M13.5334 150.672C11.2799 154.413 9.40656 158.243 7.9583 162.163M13.5334 150.672C28.903 125.162 61.9595 103.847 98.489 87.1226C176.545 51.3853 242.298 130.639 330.007 111.525C341.124 109.102 350.593 105.252 359.065 100.632M17.1829 177.047C25.4704 202.282 47.0567 216.136 76.1344 223.575M17.1829 177.047C13.5386 172.216 10.4393 167.246 7.9583 162.163M17.1829 177.047C30.6378 194.884 51.5207 210.827 76.1344 223.575M76.1344 223.575C91.4466 227.492 108.836 229.63 127.455 230.714M76.1344 223.575C88.852 230.161 102.566 235.895 116.765 240.595M127.455 230.714C162.882 232.777 202.761 231.024 241.248 230.45M127.455 230.714C144.004 214.712 161.383 196.215 187.528 189.241C226.252 178.911 262.269 187.186 296.683 201.778M127.455 230.714C123.88 234.172 120.343 237.512 116.765 240.595M241.248 230.45C255.75 230.233 270.055 230.184 283.85 230.57C301.554 231.065 320.95 228.351 341.135 223.589M241.248 230.45C212.747 245.536 183.67 257.049 145.3 248.485C135.675 246.337 126.115 243.69 116.765 240.595M241.248 230.45C259.226 220.933 276.975 209.996 296.683 201.778M341.135 223.589C363.485 218.317 386.802 210.536 409.859 201.824M341.135 223.589C398.822 254.449 453.138 288.114 509.862 260.26M341.135 223.589C326.564 215.795 311.778 208.179 296.683 201.778M409.859 201.824C512.957 162.869 610.863 105.307 593.932 170.275C583.476 210.398 559.33 232.304 516.105 256.949C514.02 258.137 511.939 259.24 509.862 260.26M409.859 201.824C393.918 194.531 376.908 189.539 358.404 189.241C334.974 188.863 314.984 194.148 296.683 201.778M409.859 201.824C447.261 218.935 478.773 248.714 509.862 260.26M509.862 260.26C528.61 267.223 547.205 267.555 566.844 254.478C617.295 220.884 624.146 165.005 582.72 124.992M116.765 240.595C101.153 254.048 84.756 262.591 60.9256 254.478C31.117 244.329 19.4352 228.129 9.44998 204.623C3.02461 189.498 3.09345 175.328 7.9583 162.163M15.3423 155.518C22.4864 147.631 30.1131 140.117 38.1739 132.983M38.1739 132.983C57.3659 115.996 79.0193 101.158 102.483 88.5347M38.1739 132.983C51.1238 118.673 68.0591 105.185 86.2412 90.9325M38.1739 132.983C23.8319 148.831 14.3783 165.688 13.5334 185.708M102.483 88.5347C141.547 67.518 185.629 52.6409 231.723 44.2126M102.483 88.5347C133.835 84.8481 169.149 85.5521 204.059 85.3386C266.965 84.9539 313.183 117.852 359.065 135.667M102.483 88.5347C96.9369 89.1868 91.515 89.9763 86.2412 90.9325M231.723 44.2126C333.068 25.6814 444.14 38.3253 532.994 85.4305M231.723 44.2126C305.086 43.9158 388.379 63.4343 458.361 85.2484M231.723 44.2126C179.477 44.4239 132.267 54.6848 98.489 81.3231C94.365 84.5753 90.2725 87.7727 86.2412 90.9325M532.994 85.4305C541.403 89.8884 549.612 94.6549 557.596 99.7328C569.65 107.4 583.588 118.444 594.468 127.532M532.994 85.4305C549.755 76.8879 564.755 75.3968 578.055 90.2808C589 102.529 594.47 114.923 594.468 127.532M532.994 85.4305C527.475 88.2436 521.764 91.8214 515.86 95.8309M594.468 127.532C605.229 136.52 613 143.595 613 143.595C613 143.595 606.094 140.394 593.807 135.142M594.468 127.532C594.467 130.06 594.247 132.596 593.807 135.142M593.807 135.142C584.165 131.021 571.211 125.636 555.679 119.543M593.807 135.142C592.39 143.336 588.694 151.626 582.72 160.028M555.679 119.543C541.583 114.014 525.364 107.901 507.572 101.619M555.679 119.543C544.72 109.571 531.321 101.589 515.86 95.8309M555.679 119.543C567.906 130.669 577.095 144.272 582.72 160.028M507.572 101.619C492.221 96.1987 475.7 90.6531 458.361 85.2484M507.572 101.619C510.376 99.6195 513.139 97.6793 515.86 95.8309M507.572 101.619C481.307 120.347 451.421 144.265 417.736 146.56C397.437 147.944 378.28 143.128 359.065 135.667M458.361 85.2484C411.939 84.4778 393.988 116.62 359.065 135.667M458.361 85.2484C459.32 85.2643 460.29 85.2942 461.274 85.3386C481.419 86.248 499.758 89.8333 515.86 95.8309M86.2412 90.9325C52.4412 97.0612 24.7245 110.04 9.44998 137.602C-1.93137 158.14 -1.19773 178.439 7.9583 197.198M13.5334 185.708C13.2714 191.916 13.8373 198.429 15.3423 205.311C15.8548 207.654 16.4696 209.91 17.1829 212.082M13.5334 185.708C11.2799 189.448 9.40656 193.279 7.9583 197.198M13.5334 185.708C28.903 160.198 61.9595 138.883 98.489 122.158C176.545 86.4207 242.298 165.675 330.007 146.56C341.124 144.137 350.593 140.288 359.065 135.667M17.1829 212.082C25.4704 237.318 47.0567 251.172 76.1344 258.61M17.1829 212.082C13.5386 207.251 10.4393 202.281 7.9583 197.198M17.1829 212.082C30.6378 229.919 51.5207 245.863 76.1344 258.61M76.1344 258.61C91.4466 262.527 108.836 264.666 127.455 265.75M76.1344 258.61C88.852 265.197 102.566 270.93 116.765 275.631M127.455 265.75C162.882 267.812 202.761 266.059 241.248 265.485M127.455 265.75C144.004 249.748 161.383 231.25 187.528 224.276C226.252 213.947 262.269 222.221 296.683 236.814M127.455 265.75C123.88 269.207 120.343 272.548 116.765 275.631M241.248 265.485C255.75 265.269 270.055 265.22 283.85 265.605C301.554 266.1 320.95 263.386 341.135 258.625M241.248 265.485C212.747 280.571 183.67 292.084 145.3 283.521C135.675 281.373 126.115 278.726 116.765 275.631M241.248 265.485C259.226 255.969 276.975 245.031 296.683 236.814M341.135 258.625C363.485 253.353 386.802 245.571 409.859 236.859M341.135 258.625C398.822 289.485 453.138 323.149 509.862 295.296M341.135 258.625C326.564 250.83 311.778 243.214 296.683 236.814M409.859 236.859C512.957 197.904 610.863 140.342 593.932 205.311C583.476 245.433 559.33 267.339 516.105 291.984C514.02 293.173 511.939 294.276 509.862 295.296M409.859 236.859C393.918 229.566 376.908 224.574 358.404 224.276C334.974 223.899 314.984 229.183 296.683 236.814M409.859 236.859C447.261 253.97 478.773 283.75 509.862 295.296M509.862 295.296C528.61 302.259 547.205 302.59 566.844 289.513C617.295 255.92 624.146 200.041 582.72 160.028M116.765 275.631C101.153 289.084 84.756 297.627 60.9256 289.513C31.117 279.365 19.4352 263.165 9.44998 239.659C3.02461 224.533 3.09345 210.364 7.9583 197.198M15.3423 183.841C22.4864 175.954 30.1131 168.44 38.1739 161.306M38.1739 161.306C57.3659 144.319 79.0193 129.481 102.483 116.858M38.1739 161.306C51.1238 146.996 68.0591 133.508 86.2412 119.256M38.1739 161.306C23.8319 177.154 14.3783 194.011 13.5334 214.031M102.483 116.858C141.547 95.841 185.629 80.9639 231.723 72.5356M102.483 116.858C133.835 113.171 169.149 113.875 204.059 113.662C266.965 113.277 313.183 146.175 359.065 163.99M102.483 116.858C96.9369 117.51 91.515 118.299 86.2412 119.256M231.723 72.5356C333.068 54.0045 444.14 66.6483 532.994 113.754M231.723 72.5356C305.086 72.2388 388.379 91.7573 458.361 113.571M231.723 72.5356C179.477 72.7469 132.267 83.0078 98.489 109.646C94.365 112.898 90.2725 116.096 86.2412 119.256M532.994 113.754C541.403 118.211 549.612 122.978 557.596 128.056C569.65 135.723 583.588 146.767 594.468 155.855M532.994 113.754C549.755 105.211 564.755 103.72 578.055 118.604C589 130.852 594.47 143.246 594.468 155.855M532.994 113.754C527.475 116.567 521.764 120.144 515.86 124.154M594.468 155.855C605.229 164.843 613 171.918 613 171.918C613 171.918 606.094 168.717 593.807 163.465M594.468 155.855C594.467 158.383 594.247 160.919 593.807 163.465M593.807 163.465C584.165 159.344 571.211 153.959 555.679 147.866M593.807 163.465C592.39 171.659 588.694 179.949 582.72 188.351M555.679 147.866C541.583 142.337 525.364 136.224 507.572 129.942M555.679 147.866C544.72 137.894 531.321 129.912 515.86 124.154M555.679 147.866C567.906 158.992 577.095 172.595 582.72 188.351M507.572 129.942C492.221 124.522 475.7 118.976 458.361 113.571M507.572 129.942C510.376 127.942 513.139 126.002 515.86 124.154M507.572 129.942C481.307 148.67 451.421 172.588 417.736 174.883C397.437 176.267 378.28 171.451 359.065 163.99M458.361 113.571C411.939 112.801 393.988 144.943 359.065 163.99M458.361 113.571C459.32 113.587 460.29 113.617 461.274 113.662C481.419 114.571 499.758 118.156 515.86 124.154M86.2412 119.256C52.4412 125.384 24.7245 138.363 9.44998 165.925C-1.93137 186.463 -1.19773 206.762 7.9583 225.521M13.5334 214.031C13.2714 220.239 13.8373 226.752 15.3423 233.634C15.8548 235.977 16.4696 238.233 17.1829 240.405M13.5334 214.031C11.2799 217.771 9.40656 221.602 7.9583 225.521M13.5334 214.031C28.903 188.521 61.9595 167.206 98.489 150.481C176.545 114.744 242.298 193.998 330.007 174.883C341.124 172.46 350.593 168.611 359.065 163.99M17.1829 240.405C25.4704 265.641 47.0567 279.495 76.1344 286.933M17.1829 240.405C13.5386 235.574 10.4393 230.604 7.9583 225.521M17.1829 240.405C30.6378 258.242 51.5207 274.186 76.1344 286.933M76.1344 286.933C91.4466 290.85 108.836 292.989 127.455 294.073M76.1344 286.933C88.852 293.52 102.566 299.253 116.765 303.954M127.455 294.073C162.882 296.135 202.761 294.382 241.248 293.808M127.455 294.073C144.004 278.071 161.383 259.573 187.528 252.599C226.252 242.27 262.269 250.544 296.683 265.137M127.455 294.073C123.88 297.53 120.343 300.871 116.765 303.954M241.248 293.808C255.75 293.592 270.055 293.543 283.85 293.928C301.554 294.423 320.95 291.709 341.135 286.948M241.248 293.808C212.747 308.894 183.67 320.407 145.3 311.844C135.675 309.696 126.115 307.049 116.765 303.954M241.248 293.808C259.226 284.292 276.975 273.354 296.683 265.137M341.135 286.948C363.485 281.676 386.802 273.894 409.859 265.182M341.135 286.948C398.822 317.808 453.138 351.472 509.862 323.619M341.135 286.948C326.564 279.153 311.778 271.537 296.683 265.137M409.859 265.182C512.957 226.227 610.863 168.665 593.932 233.634C583.476 273.756 559.33 295.662 516.105 320.307C514.02 321.496 511.939 322.599 509.862 323.619M409.859 265.182C393.918 257.889 376.908 252.897 358.404 252.599C334.974 252.222 314.984 257.506 296.683 265.137M409.859 265.182C447.261 282.293 478.773 312.073 509.862 323.619M509.862 323.619C528.61 330.582 547.205 330.913 566.844 317.836C617.295 284.243 624.146 228.364 582.72 188.351M116.765 303.954C101.153 317.407 84.756 325.95 60.9256 317.836C31.117 307.688 19.4352 291.488 9.44998 267.982C3.02461 252.856 3.09345 238.687 7.9583 225.521" stroke="black"/>
</svg>
